<svg width="782.47998046875" height="180.00030517578125"><defs id="SvgjsDefs1011"></defs><g id="SvgjsG1012" featurekey="root" fill="#ffffff" transform="matrix(1,0,0,1,0,0)"></g><g id="SvgjsG1013" featurekey="symbol1" fill="#317f90" transform="matrix(1.7045441245254933,0,0,1.7045441245254933,4.77278889698548,4.772943327080991)"><g transform="translate(0,-952.36218)"><path style="text-indent:0;text-transform:none;direction:ltr;block-progression:tb;baseline-shift:baseline;color:;enable-background:accumulate;" d="m 8.2499687,958.36225 c -1.165004,-0.0165 -2.25,1.04992 -2.25,2.21871 0,1.1688 1.084996,2.2353 2.25,2.21868 l 19.6249963,0 0,16.40633 c 0,0.64389 0.319606,1.27498 0.812515,1.6875 -1.705996,3.24379 -2.749996,6.92489 -2.749996,10.87497 0,6.48571 2.189693,11.80566 5.625,15.62506 -12.916488,5.604 -23.0093143,17.8913 -23.1875073,36.2812 0.01541,1.821 1.155012,2.6715 2.4686933,2.6876 l 77.062604,0 c 1.15459,0 2.21861,-1.0293 2.21871,-2.1876 0,-18.6662 -10.2196,-31.1277 -23.250009,-36.8124 3.418193,-3.8169 5.593713,-9.12693 5.593713,-15.59386 0,-3.94239 -0.966508,-7.659 -2.687421,-10.90619 0.484015,-0.40511 0.769819,-1.02398 0.781228,-1.65628 l 0,-16.40633 13.656189,0 0,28.31262 c -3.0313,0.3493 -5.4062,2.93499 -5.4062,6.06238 l 0,10.43766 c 0.0111,1.914 0.864,2.6487 2.28118,2.6562 l 10.71882,0 c 1.4973,0 2.19419,-1.5121 2.1875,-2.6875 l 0,-10.40636 c 0,-3.1152 -2.3602,-5.69689 -5.37502,-6.06238 l 0,-30.12502 c -7.1e-4,-1.88288 -1.00977,-2.61759 -2.68749,-2.62499 l -77.6875053,0 z m 25.2187083,23.06239 31.531287,0 c 1.952326,2.95211 3.062515,6.47352 3.062515,10.3438 0,6.386 -2.320582,10.92836 -5.812511,13.99996 -3.492,3.0717 -8.249882,4.6251 -13.031291,4.6251 -4.780985,0 -9.539292,-1.5534 -13.031185,-4.6251 -3.491929,-3.0716 -5.812512,-7.61396 -5.812512,-13.99996 0,-3.83779 1.16511,-7.36278 3.093697,-10.3438 z m 29.687598,29.18766 c 12.106594,4.4491 21.691909,14.6137 22.468709,31.3437 l -72.781295,0 c 0.780591,-16.7342 10.358291,-26.9039 22.468783,-31.3125 4.077496,2.8115 9,4.1875 13.906205,4.1875 4.922114,0 9.852306,-1.389 13.937598,-4.2187 z" fill="#317f90" fill-opacity="1" fill-rule="evenodd" stroke="none" marker="none" visibility="visible" display="inline" overflow="visible"></path></g></g><g id="SvgjsG1014" featurekey="text1" fill="#000000" transform="matrix(4.0456621502003,0,0,4.0456621502003,175.14520715596947,-11.890227412007093)"><path d="M6.02 10 c3.14 0 5.12 1.92 5.12 4.7 s-1.98 4.54 -5.12 4.54 l-2.2 0 l0 4.76 l-2.62 0 l0 -14 l4.82 0 z M5.88 16.98 c1.58 0 2.64 -0.68 2.64 -2.28 c0 -1.58 -1.06 -2.28 -2.64 -2.28 l-2.06 0 l0 4.56 l2.06 0 z M15.48 9.86 l0 14.14 l-2.58 0 l0 -14.14 l2.58 0 z M22.4 13.42 c1.9 0 3 1.2 3.08 1.54 l0 -1.36 l2.58 0 l0 10.4 l-2.58 0 l0 -1.5 c-0.08 0.56 -1.18 1.7 -3.08 1.7 c-2.38 0 -5.16 -1.74 -5.16 -5.4 c0 -3.58 2.78 -5.38 5.16 -5.38 z M22.74 15.7 c-1.5 0 -3 1.06 -3 3.1 c0 2.06 1.5 3.12 3 3.12 s2.86 -1.04 2.86 -3.12 c0 -2.06 -1.36 -3.1 -2.86 -3.1 z M34.58 21.86 c0.56 0 0.94 -0.08 1.38 -0.24 l0 2.14 c-0.44 0.22 -1.08 0.36 -2.04 0.36 c-1.48 0 -2.76 -0.54 -2.76 -3.22 l0 -5.18 l-1.44 0 l0 -2.12 l1.44 0 l0 -2.44 l2.58 0 l0 2.44 l2.2 0 l0 2.12 l-2.2 0 l0 5.14 c0 0.52 0.16 1 0.84 1 z M42.76 13.42 c2.36 0 5.42 1.8 5.42 5.4 c0 3.64 -3.06 5.38 -5.42 5.38 s-5.42 -1.74 -5.42 -5.38 c0 -3.6 3.06 -5.4 5.42 -5.4 z M42.76 15.7 c-1.38 0 -2.92 1.06 -2.92 3.12 c0 2.04 1.54 3.1 2.92 3.1 s2.94 -1.06 2.94 -3.1 c0 -2.06 -1.56 -3.12 -2.94 -3.12 z  M67.3 24 l-1.16 -2.7 l-6.92 0 l-1.16 2.7 l-2.78 0 l6.24 -14 l2.34 0 l6.22 14 l-2.78 0 z M60.14 19.16 l5.08 0 l-2.54 -5.92 z M76.58 13.42 c1.9 0 3.5 0.82 4.46 2.5 l-1.98 0.92 c-0.58 -0.68 -1.24 -1.14 -2.44 -1.14 c-1.4 0 -2.94 1.06 -2.94 3.12 c0 2.04 1.54 3.08 2.94 3.08 c1.2 0 1.86 -0.44 2.44 -1.12 l2 0.92 c-0.98 1.68 -2.56 2.48 -4.48 2.48 c-2.34 0 -5.4 -1.72 -5.4 -5.36 c0 -3.6 3.06 -5.4 5.4 -5.4 z M87.52 13.42 c1.9 0 3 1.2 3.08 1.54 l0 -1.36 l2.58 0 l0 10.4 l-2.58 0 l0 -1.5 c-0.08 0.56 -1.18 1.7 -3.08 1.7 c-2.38 0 -5.16 -1.74 -5.16 -5.4 c0 -3.58 2.78 -5.38 5.16 -5.38 z M87.86 15.7 c-1.5 0 -3 1.06 -3 3.1 c0 2.06 1.5 3.12 3 3.12 s2.86 -1.04 2.86 -3.12 c0 -2.06 -1.36 -3.1 -2.86 -3.1 z M103.17999999999999 9.86 l2.58 0 l0 5.5 l0 8.64 l-2.58 0 l0 -1.5 c-0.08 0.56 -1.18 1.7 -3.08 1.7 c-2.38 0 -5.16 -1.74 -5.16 -5.4 c0 -3.58 2.78 -5.38 5.16 -5.38 c1.9 0 3 1.2 3.08 1.54 l0 -5.1 z M100.44 21.92 c1.5 0 2.86 -1.04 2.86 -3.12 c0 -2.06 -1.36 -3.1 -2.86 -3.1 s-3 1.06 -3 3.1 c0 2.06 1.5 3.12 3 3.12 z M112.94 13.42 c2.36 0 5.6 1.8 5.04 6.3 l-7.86 0 c0.34 1.52 1.6 2.3 3.1 2.3 c1.34 0 1.94 -0.32 2.68 -0.8 l1.44 1.38 c-0.92 0.98 -2.22 1.6 -4.2 1.6 c-2.62 0 -5.62 -1.8 -5.62 -5.38 c0 -3.6 3.06 -5.4 5.42 -5.4 z M112.94 15.62 c-1.16 0 -2.42 0.76 -2.8 2.24 l5.58 0 c-0.3 -1.48 -1.62 -2.24 -2.78 -2.24 z M133.14 13.44 c2.1 0 4.06 1.34 4.06 4.78 l0 5.78 l-2.56 0 l0 -5.74 c0 -1.58 -0.76 -2.58 -2.26 -2.58 c-1.44 0 -2.34 1.22 -2.58 2.38 l0 5.94 l-2.58 0 l0 -5.74 c0 -1.58 -0.98 -2.58 -2.26 -2.58 c-1.52 0 -2.36 1.14 -2.58 2.38 l0 5.94 l-2.58 0 l0 -10.4 l2.58 0 l0 2.12 c0.06 -0.6 1.08 -2.28 3.2 -2.28 c1.46 0 2.96 0.78 3.74 2.4 c0.3 -0.76 1.52 -2.4 3.82 -2.4 z M147.56 13.58 l2.56 0 l-6.34 14.22 l-2.58 0 l1.88 -4.14 l-4.48 -10.08 l2.56 0 l3.2 7.28 z"></path></g><g id="SvgjsG1015" featurekey="text3" fill="#317f90" transform="matrix(2.965906851620011,0,0,2.965906851620011,177.23529950312047,85.38492366292753)"><path d="M8.4576 16.7798 c1.4068 0.64407 2.2881 1.9324 2.2881 3.4408 c0 2.2373 -1.9661 3.7795 -4.0508 3.7795 l-5.4746 0 c-0.16949 0 -0.28814 -0.11864 -0.28814 -0.28814 l0 -13 c0 -0.15254 0.10169 -0.27119 0.27119 -0.27119 l5.051 0 c2.1524 0 3.7625 1.8814 3.7625 3.5763 c0 1.2373 -0.66102 2.2034 -1.5593 2.7627 z M5.8814 16.2207 c2.8136 0 2.8644 -3.9322 0.033898 -3.9322 l-3.0678 0 l0 3.9322 l3.0339 0 z M6.2542 22.1529 c3.322 0 3.339 -4.1356 -0.033898 -4.1356 l-3.3729 0 l0.016949 4.1356 l3.3898 0 z M20.96606779661017 22.1525 c0.15238 0 0.27102 0.10169 0.27102 0.28814 l0 1.2881 c0 0.15238 -0.11881 0.27102 -0.27119 0.27102 l-8 0 c-0.15254 0 -0.22034 -0.11864 -0.22034 -0.27102 l0 -13.017 c0 -0.15254 0.10169 -0.27119 0.27136 -0.27119 l1.3729 0 c0.15254 0 0.27119 0.11864 0.27119 0.27119 l0 11.441 l6.3051 0 z M36.28849152542373 23.69492 c0.08458 0.16966 0.033898 0.30508 -0.15254 0.30508 l-1.5424 0 c-0.15254 0 -0.23712 -0.067631 -0.28797 -0.18644 l-1.0508 -2.2034 l-7.3051 0 l-1.0339 2.2034 c-0.067797 0.11881 -0.15254 0.18644 -0.28814 0.18644 l-1.5593 0 c-0.16949 0 -0.25424 -0.13543 -0.18644 -0.30508 l6.3898 -13.186 c0.050847 -0.11864 0.13559 -0.15254 0.22034 -0.15254 l0.22017 0 c0.084746 0 0.15254 0.033898 0.22034 0.15254 z M26.77979152542373 19.8646 l5.6441 0 l-2.8136 -6 z M49.677949152542375 21.5764 c0.13559 0.11864 0.13576 0.27136 -0.016784 0.42373 c-1.2542 1.3222 -2.9661 2.1186 -5 2.1186 c-3.7627 0 -6.8814 -3.0168 -6.8814 -6.8642 s3.1186 -6.9322 6.8814 -6.9322 c2 0 3.7625 0.79661 5.0337 2.1356 c0.15254 0.15238 0.15254 0.30492 0.016949 0.40661 l-1.0847 0.88119 c-0.13559 0.11881 -0.25424 0.11881 -0.38983 -0.016784 c-0.72881 -0.76271 -1.9831 -1.5593 -3.5085 -1.5593 c-3.0508 0 -5.0339 2.5424 -5.0339 5.0847 c0 2.5593 1.9831 5.0169 5.0339 5.0169 c1.5085 0 2.7288 -0.76271 3.4576 -1.5085 c0.13559 -0.15254 0.27119 -0.16933 0.40678 -0.067797 z M61.93222033898305 23.37305 c0.25441 0.27119 0.11831 0.62746 -0.25458 0.62746 l-1.4237 0 c-0.15254 0 -0.23729 -0.033732 -0.35593 -0.15238 l-6.339 -6.678 l0 6.5593 c0 0.15238 -0.11864 0.27102 -0.27119 0.27102 l-1.3729 0 c-0.15254 0 -0.27119 -0.11864 -0.27119 -0.27102 l0 -12.034 c-0.016949 -0.38983 -0.050681 -0.62712 -0.10153 -0.91525 c-0.033898 -0.18644 0.016949 -0.33898 0.18644 -0.33898 l1.1697 0 c0.40678 0 0.66102 0.23729 0.66102 0.61017 l0 5.661 l5.5932 -6.1186 c0.084746 -0.10186 0.18644 -0.15271 0.33898 -0.15271 l1.4576 0 c0.33898 0 0.45763 0.35593 0.25424 0.5761 l-5.4407 5.9322 z  M75.77963389830508 16.7798 c1.4068 0.64407 2.2881 1.9324 2.2881 3.4408 c0 2.2373 -1.9661 3.7795 -4.0508 3.7795 l-5.4746 0 c-0.16949 0 -0.28814 -0.11864 -0.28814 -0.28814 l0 -13 c0 -0.15254 0.10169 -0.27119 0.27119 -0.27119 l5.051 0 c2.1524 0 3.7625 1.8814 3.7625 3.5763 c0 1.2373 -0.66102 2.2034 -1.5593 2.7627 z M73.20343389830508 16.2207 c2.8136 0 2.8644 -3.9322 0.033898 -3.9322 l-3.0678 0 l0 3.9322 l3.0339 0 z M73.57623389830508 22.1529 c3.322 0 3.339 -4.1356 -0.033898 -4.1356 l-3.3729 0 l0.016949 4.1356 l3.3898 0 z M88.88140169491525 12.288 l-6.7288 0 l0 4.1356 l3.8983 0 c0.16949 0 0.28814 0.11864 0.28814 0.28814 l0 1.2712 c0 0.18644 -0.11864 0.28814 -0.28814 0.28814 l-3.8983 0 l0.016784 3.8814 l6.712 0 c0.16949 0 0.28814 0.11864 0.28814 0.28814 l0 1.2712 c0 0.16949 -0.11864 0.28814 -0.28814 0.28814 l-8.3559 0 c-0.16949 0 -0.28831 -0.11864 -0.28831 -0.28814 l0 -13 c0 -0.15254 0.10186 -0.27119 0.27119 -0.27119 l8.3731 0 c0.16949 0 0.28814 0.11864 0.28814 0.27119 l0 1.3051 c0 0.16949 -0.11864 0.27119 -0.28814 0.27119 z M99.54233898305085 22.1525 c0.15238 0 0.27102 0.10169 0.27102 0.28814 l0 1.2881 c0 0.15238 -0.11881 0.27102 -0.27119 0.27102 l-8 0 c-0.15254 0 -0.22034 -0.11864 -0.22034 -0.27102 l0 -13.017 c0 -0.15254 0.10169 -0.27119 0.27136 -0.27119 l1.3729 0 c0.15254 0 0.27119 0.11864 0.27119 0.27119 l0 11.441 l6.3051 0 z M111.88076271186442 10.441 c0.15254 0 0.27102 0.10169 0.27102 0.27119 l0 1.3051 c0 0.15254 -0.11864 0.27119 -0.27119 0.27119 l-4.0846 0 l0 11.424 c0 0.18644 -0.10169 0.28797 -0.27119 0.28797 l-0.98305 0 c-0.44068 0 -0.66102 -0.28797 -0.66102 -0.6778 l0 -11.034 l-4.0846 0 c-0.15254 0 -0.28814 -0.10169 -0.28814 -0.27119 l0 -1.288 c0 -0.16966 0.11864 -0.28831 0.28814 -0.28831 l10.085 0 z M113.76271423728814 21.678 l0.74576 -0.84763 c0.18644 -0.20339 0.38983 -0.20339 0.5422 -0.084746 c0.4578 0.38983 1.6103 1.5424 3.1527 1.5424 c1.6949 0 2.7119 -0.81356 2.7119 -1.9322 c0 -1.3898 -1.5257 -1.7797 -2.9834 -2.339 c-2.2203 -0.88136 -3.9831 -1.8644 -3.9831 -3.9831 c0 -1.7288 1.2712 -3.6949 4.322 -3.6949 c2.0847 0 3.5932 1.2034 4.0169 1.6102 c0.15254 0.15254 0.23729 0.35593 0.10169 0.52542 l-0.66102 0.86441 c-0.13559 0.18661 -0.32203 0.25441 -0.54237 0.10186 c-0.44068 -0.33898 -1.4915 -1.2881 -2.8983 -1.2881 c-1.5254 0 -2.4237 0.84746 -2.4237 1.8814 c0 1.1695 1.1186 1.6441 2.712 2.2542 c2.0339 0.81356 4.2373 1.7627 4.2373 4.0847 c0 1.9831 -1.8981 3.7456 -4.5931 3.7456 c-2.4407 0 -3.9492 -1.5761 -4.3729 -1.9829 c-0.13559 -0.11864 -0.25424 -0.27102 -0.084746 -0.45763 z"></path></g></svg>